# Blender v2.76 (sub 0) OBJ File: 'chest.blend'
# www.blender.org
mtllib chestOBJ.mtl
o Chest_Cube.001
v 0.576378 0.725301 0.323928
v -0.559148 0.725301 0.323928
v -0.559148 0.725301 -0.348841
v 0.576378 0.725301 -0.348841
v 0.601492 0.783088 0.351878
v -0.584023 0.783088 0.351877
v -0.584023 0.783088 -0.376791
v 0.601492 0.783088 -0.376791
v -0.520326 0.716995 -0.310283
v 0.537212 0.716995 -0.310283
v -0.520326 0.716995 0.285370
v 0.537212 0.716995 0.285369
v -0.520035 0.309427 0.285370
v 0.537212 0.309427 0.285369
v 0.537212 0.309427 -0.310283
v -0.520034 0.309427 -0.310283
v 0.571375 0.265876 -0.344159
v -0.554044 0.265876 -0.344159
v -0.554044 0.265876 0.323380
v 0.571375 0.265876 0.323380
v -0.182498 0.119198 0.323380
v 0.194707 0.119198 0.323380
v 0.571375 0.076987 -0.344159
v -0.554044 0.076987 -0.344159
v -0.554044 0.076987 0.323380
v 0.571375 0.076987 0.323380
v 0.226404 0.076987 0.323380
v -0.214195 0.076987 0.323380
v 0.226416 0.076988 0.205911
v -0.214207 0.076988 0.205911
v 0.057399 0.119161 0.323380
v 0.057399 0.119161 0.282801
v -0.045189 0.119161 0.282801
v -0.045189 0.119161 0.323380
v 0.021508 0.076909 0.323380
v -0.009299 0.076909 0.323380
v -0.009299 0.076909 0.282801
v 0.021508 0.076909 0.282801
v 0.396723 0.017306 0.269985
v 0.328343 0.017306 0.269985
v 0.328343 0.017306 0.306312
v 0.396723 0.017306 0.306312
v 0.277737 0.083395 0.306443
v 0.277737 0.083395 0.269971
v 0.447330 0.083395 0.269971
v 0.447330 0.083395 0.306443
v 0.429909 0.047731 0.269978
v 0.295157 0.047731 0.269978
v 0.429909 0.047731 0.306435
v 0.295157 0.047731 0.306435
v -0.413385 0.047731 0.306435
v -0.278634 0.047731 0.306435
v -0.413385 0.047731 0.269978
v -0.278634 0.047731 0.269978
v -0.261212 0.083395 0.306443
v -0.261212 0.083395 0.269971
v -0.430806 0.083395 0.269971
v -0.430806 0.083395 0.306443
v -0.311820 0.017306 0.306312
v -0.380199 0.017306 0.306312
v -0.380199 0.017306 0.269985
v -0.311820 0.017306 0.269985
v -0.311820 0.017306 -0.326859
v -0.380199 0.017306 -0.326859
v -0.380199 0.017306 -0.290533
v -0.311820 0.017306 -0.290533
v -0.430806 0.083395 -0.290402
v -0.430806 0.083395 -0.326874
v -0.261213 0.083395 -0.326874
v -0.261213 0.083395 -0.290402
v -0.278634 0.047731 -0.326867
v -0.413385 0.047731 -0.326867
v -0.278634 0.047731 -0.290410
v -0.413385 0.047731 -0.290410
v 0.295157 0.047731 -0.290410
v 0.429909 0.047731 -0.290410
v 0.295157 0.047731 -0.326867
v 0.429909 0.047731 -0.326867
v 0.447330 0.083395 -0.290402
v 0.447330 0.083395 -0.326874
v 0.277737 0.083395 -0.326874
v 0.277737 0.083395 -0.290402
v 0.396723 0.017306 -0.290533
v 0.328343 0.017306 -0.290533
v 0.328343 0.017306 -0.326860
v 0.396723 0.017306 -0.326860
v -0.008537 0.556013 0.308997
v 0.029699 0.556013 0.308997
v -0.033845 0.606291 0.304561
v 0.055007 0.606291 0.304561
v 0.048255 0.576931 0.307215
v -0.027094 0.576931 0.307215
v 0.015594 0.620669 0.302980
v 0.015594 0.566448 0.302980
v 0.015594 0.571197 0.322440
v 0.015594 0.593559 0.334442
v 0.015594 0.615920 0.322440
v 0.602028 0.754194 0.351790
v -0.584081 0.754194 0.351790
v -0.584081 0.754194 -0.376819
v 0.602028 0.754194 -0.376819
v 0.015594 0.593559 0.302606
v 0.035503 0.636444 0.301887
v -0.014341 0.636444 0.301887
v 0.001905 0.517346 0.312370
v 0.019257 0.517346 0.312370
v -0.014341 0.688791 0.294547
v -0.014341 0.688791 0.298131
v 0.035503 0.688791 0.298131
v 0.035503 0.688791 0.294547
v 0.035503 0.713941 0.282176
v 0.035503 0.713941 0.298131
v -0.014341 0.713941 0.298131
v -0.014341 0.713941 0.282176
v 0.035503 0.701366 0.282176
v 0.035503 0.701366 0.303936
v -0.014341 0.701366 0.303936
v -0.014341 0.701366 0.282176
v 0.015594 0.593559 0.280270
v 0.015594 0.566448 0.280645
v 0.015594 0.620669 0.280645
v 0.006272 0.620669 0.280645
v 0.006272 0.566448 0.280645
v 0.006272 0.593559 0.280270
v 0.006272 0.593559 0.302606
v 0.006272 0.615920 0.322440
v 0.006272 0.593559 0.334442
v 0.006272 0.571197 0.322440
v 0.006272 0.566448 0.302980
v 0.006272 0.620669 0.302980
v 0.194707 0.119029 0.239962
v -0.182498 0.119029 0.239962
vt 0.380761 0.606960
vt 0.010502 0.606960
vt 0.010502 0.004563
vt 0.380760 0.004563
vt 0.981588 0.579286
vt 0.404373 0.579286
vt 0.424282 0.559783
vt 0.961853 0.559783
vt 0.022440 0.963106
vt 0.369351 0.963106
vt 0.349468 0.947760
vt 0.042323 0.947760
vt 0.984052 0.577537
vt 0.407850 0.577537
vt 0.427550 0.557269
vt 0.964178 0.557269
vt 0.427697 0.346343
vt 0.964178 0.346343
vt 0.042323 0.733417
vt 0.349468 0.733417
vt 0.424282 0.348482
vt 0.961706 0.348482
vt 0.406916 0.326344
vt 0.978993 0.326344
vt 0.366936 0.710960
vt 0.022723 0.710960
vt 0.410440 0.324244
vt 0.981513 0.324244
vt 0.598974 0.249815
vt 0.790380 0.249815
vt 0.022723 0.613560
vt 0.366936 0.613560
vt 0.406916 0.230327
vt 0.978993 0.230327
vt 0.406742 0.006436
vt 0.777218 0.006436
vt 0.663661 0.187514
vt 0.518613 0.187514
vt 0.727012 0.249790
vt 0.664728 0.249790
vt 0.678706 0.610856
vt 0.697409 0.610856
vt 0.977951 0.019275
vt 0.977951 0.044146
vt 0.943973 0.044146
vt 0.943973 0.019275
vt 0.891113 0.044146
vt 0.891113 0.019275
vt 0.925091 0.019275
vt 0.925091 0.044146
vt 0.936863 0.094691
vt 0.901672 0.094691
vt 0.901672 0.075996
vt 0.936863 0.075996
vt 0.980459 0.094758
vt 0.960033 0.094754
vt 0.960032 0.075992
vt 0.980459 0.075988
vt 0.858075 0.075988
vt 0.878502 0.075992
vt 0.878501 0.094754
vt 0.858074 0.094758
vt 0.875768 0.134364
vt 0.884676 0.116127
vt 0.953580 0.116127
vt 0.962489 0.134364
vt 0.901645 0.100570
vt 0.936611 0.100570
vt 0.884443 0.200105
vt 0.901449 0.184514
vt 0.936490 0.184514
vt 0.953497 0.200105
vt 0.875516 0.218381
vt 0.962424 0.218381
vt 0.878008 0.156778
vt 0.901224 0.156782
vt 0.901224 0.175515
vt 0.878008 0.175578
vt 0.857540 0.156775
vt 0.857540 0.175582
vt 0.959702 0.175578
vt 0.936485 0.175514
vt 0.936485 0.156782
vt 0.959702 0.156778
vt 0.980170 0.175582
vt 0.980170 0.156774
vt 0.936722 0.094709
vt 0.901423 0.094709
vt 0.901422 0.075956
vt 0.936722 0.075956
vt 0.980453 0.075950
vt 0.857690 0.075950
vt 0.878180 0.075953
vt 0.878181 0.094773
vt 0.857691 0.094778
vt 0.875467 0.218337
vt 0.953424 0.200067
vt 0.962348 0.218337
vt 0.936422 0.184481
vt 0.884914 0.116028
vt 0.901843 0.100508
vt 0.936723 0.100508
vt 0.953652 0.116028
vt 0.876028 0.134220
vt 0.962539 0.134220
vt 0.878032 0.156747
vt 0.878033 0.175534
vt 0.857578 0.156744
vt 0.857579 0.175538
vt 0.959668 0.175533
vt 0.959669 0.156747
vt 0.980120 0.175537
vt 0.980121 0.156744
vt 0.953345 0.200101
vt 0.953541 0.116190
vt 0.884616 0.116190
vt 0.875706 0.134432
vt 0.791373 0.138719
vt 0.795619 0.120177
vt 0.843011 0.120174
vt 0.847259 0.138716
vt 0.807290 0.106971
vt 0.831339 0.106970
vt 0.410440 0.228396
vt 0.582890 0.228396
vt 0.806464 0.228396
vt 0.981513 0.228396
vt 0.984052 0.577567
vt 0.997067 0.592228
vt 0.395198 0.592228
vt 0.407850 0.577567
vt 0.996795 0.606890
vt 0.395228 0.606890
vt 0.008073 0.978005
vt 0.383778 0.978005
vt 0.008028 0.992904
vt 0.383763 0.992904
vt 0.994262 0.593992
vt 0.391334 0.593992
vt 0.994232 0.608410
vt 0.391607 0.608680
vt 0.819566 0.057704
vt 0.806283 0.054462
vt 0.798092 0.039199
vt 0.819821 0.039199
vt 0.819566 0.020695
vt 0.806283 0.023936
vt 0.834992 0.157756
vt 0.803642 0.157758
vt 0.813856 0.082559
vt 0.824770 0.082558
vt 0.834993 0.190765
vt 0.803644 0.190767
vt 0.850979 0.210550
vt 0.843021 0.218378
vt 0.843021 0.204608
vt 0.850979 0.208281
vt 0.835064 0.218378
vt 0.835064 0.208281
vt 0.787575 0.208129
vt 0.795532 0.204456
vt 0.795532 0.218226
vt 0.787575 0.210397
vt 0.803490 0.208129
vt 0.803490 0.218226
vt 0.834994 0.199477
vt 0.803644 0.199478
vt 0.834994 0.208188
vt 0.803645 0.208189
vt 0.835032 0.218329
vt 0.803490 0.218329
vt 0.803490 0.208232
vt 0.834811 0.020695
vt 0.835066 0.039199
vt 0.834811 0.057704
vt 0.834880 0.057716
vt 0.834880 0.064092
vt 0.819603 0.064093
vt 0.834835 0.020581
vt 0.819579 0.020581
vt 0.819579 0.014214
vt 0.834835 0.014214
vt 0.797758 0.054347
vt 0.797874 0.066287
vt 0.792317 0.066341
vt 0.792201 0.054401
vt 0.797779 0.039244
vt 0.797779 0.054372
vt 0.792222 0.039244
vt 0.797778 0.024134
vt 0.797778 0.039262
vt 0.792221 0.039262
vt 0.792221 0.024134
vt 0.797785 0.012189
vt 0.792228 0.012189
vt 0.819863 0.039170
vt 0.834879 0.020633
vt 0.518617 0.226183
vt 0.406742 0.226183
vt 0.777218 0.226183
vt 0.663658 0.226183
vt 0.653223 0.198723
vt 0.529051 0.198723
vt 0.653223 0.226183
vt 0.529051 0.226183
vn 0.000000 1.000000 0.000000
vn 0.000000 -0.977600 -0.210600
vn -0.209200 -0.977900 -0.000000
vn 0.207400 -0.978200 0.000000
vn 0.000000 -0.977600 0.210600
vn 0.000000 0.000000 1.000000
vn 1.000000 0.000000 -0.000000
vn -1.000000 -0.000700 -0.000000
vn 0.000000 0.000000 -1.000000
vn 0.000000 0.614000 -0.789300
vn -0.788200 0.615500 -0.000000
vn 0.786800 0.617200 -0.000000
vn 0.000000 0.657600 0.753400
vn -1.000000 0.000000 -0.000000
vn -0.000000 -1.000000 0.000000
vn -0.762200 -0.647400 0.000000
vn 0.762200 -0.647400 -0.000000
vn 0.898500 -0.438900 0.000000
vn 0.675800 -0.737100 0.000000
vn -0.898500 -0.438900 0.000000
vn -0.675800 -0.737100 0.000000
vn 0.000000 -0.000200 1.000000
vn 0.000000 -0.004000 1.000000
vn 0.000000 -0.000200 -1.000000
vn 0.000000 0.090000 0.995900
vn 0.000000 0.084900 0.996400
vn -0.000000 -0.694100 0.719800
vn -0.000000 -0.003000 1.000000
vn -0.757100 -0.653300 -0.000000
vn -1.000000 0.002000 -0.000000
vn 0.000000 -0.695600 -0.718400
vn 0.000000 0.001000 -1.000000
vn 0.999800 0.018600 0.000000
vn 0.747800 -0.663900 0.000000
vn 0.000000 0.088300 0.996100
vn 0.000000 0.086900 0.996200
vn 0.000000 0.071600 0.997400
vn 0.000000 -0.419100 0.907900
vn 0.000000 0.419100 0.907900
vn 0.000000 0.971500 0.237100
vn 0.000000 0.472900 0.881100
vn 0.000000 -0.472900 0.881100
vn 0.000000 -0.971500 0.237100
vn 0.000000 -0.629400 0.777100
vn -0.798900 -0.601400 0.000500
vn 0.798900 -0.601400 0.000500
vn 0.000000 -1.000000 0.002000
usemtl chest
s off
f 5/1/1 8/2/1 7/3/1 6/4/1
f 3/5/2 4/6/2 10/7/2 9/8/2
f 2/9/3 3/10/3 9/11/3 11/12/3
f 4/10/4 1/9/4 12/12/4 10/11/4
f 1/13/5 2/14/5 11/15/5 12/16/5
f 12/16/6 11/15/6 13/17/6 14/18/6
f 10/11/7 12/12/7 14/19/7 15/20/7
f 11/12/8 9/11/8 16/20/8 13/19/8
f 9/8/9 10/7/9 15/21/9 16/22/9
f 16/22/10 15/21/10 17/23/10 18/24/10
f 13/19/11 16/20/11 18/25/11 19/26/11
f 15/20/12 14/19/12 20/26/12 17/25/12
f 14/18/13 13/17/13 19/27/13 20/28/13
f 20/28/6 19/27/6 21/29/6 22/30/6
f 17/25/7 20/26/7 26/31/7 23/32/7
f 19/26/14 18/25/14 24/32/14 25/31/14
f 18/24/9 17/23/9 23/33/9 24/34/9
f 24/35/15 23/36/15 29/37/15 30/38/15
f 31/39/6 34/40/6 36/41/6 35/42/6
f 34/43/16 33/44/16 37/45/16 36/46/16
f 32/47/17 31/48/17 35/49/17 38/50/17
f 35/49/15 36/46/15 37/45/15 38/50/15
f 42/51/15 41/52/15 40/53/15 39/54/15
f 46/55/18 49/56/18 47/57/18 45/58/18
f 49/56/19 42/51/19 39/54/19 47/57/19
f 44/59/20 48/60/20 50/61/20 43/62/20
f 48/60/21 40/53/21 41/52/21 50/61/21
f 43/63/22 50/64/22 49/65/22 46/66/22
f 50/64/23 41/67/23 42/68/23 49/65/23
f 51/69/23 60/70/23 59/71/23 52/72/23
f 58/73/22 51/69/22 52/72/22 55/74/22
f 53/75/21 61/76/21 60/77/21 51/78/21
f 57/79/20 53/75/20 51/78/20 58/80/20
f 52/81/19 59/82/19 62/83/19 54/84/19
f 55/85/18 52/81/18 54/84/18 56/86/18
f 59/82/15 60/77/15 61/76/15 62/83/15
f 66/87/15 65/88/15 64/89/15 63/90/15
f 70/55/18 73/56/18 71/57/18 69/91/18
f 73/56/19 66/87/19 63/90/19 71/57/19
f 68/92/20 72/93/20 74/94/20 67/95/20
f 72/93/21 64/89/21 65/88/21 74/94/21
f 67/96/22 74/69/22 73/97/22 70/98/22
f 74/69/23 65/70/23 66/99/23 73/97/23
f 75/100/23 84/101/23 83/102/23 76/103/23
f 82/104/22 75/100/22 76/103/22 79/105/22
f 77/106/21 85/76/21 84/77/21 75/107/21
f 81/108/20 77/106/20 75/107/20 82/109/20
f 76/110/19 83/82/19 86/83/19 78/111/19
f 79/112/18 76/110/18 78/111/18 80/113/18
f 83/82/15 84/77/15 85/76/15 86/83/15
f 77/100/24 81/104/24 80/105/24 78/103/24
f 77/100/24 78/103/24 86/102/24 85/101/24
f 53/114/24 57/98/24 56/96/24 54/69/24
f 53/114/24 54/69/24 62/70/24 61/99/24
f 63/99/24 64/70/24 72/69/24 71/97/24
f 68/96/24 69/98/24 71/97/24 72/69/24
f 39/67/24 40/68/24 48/115/24 47/116/24
f 44/66/24 45/117/24 47/116/24 48/115/24
f 89/118/25 92/119/25 91/120/25 90/121/25
f 92/119/26 87/122/26 88/123/26 91/120/26
f 19/27/6 25/124/6 28/125/6 21/29/6
f 20/28/6 22/30/6 27/126/6 26/127/6
f 1/128/27 98/129/27 99/130/27 2/131/27
f 98/129/28 5/132/28 6/133/28 99/130/28
f 2/9/29 99/134/29 100/135/29 3/10/29
f 99/134/30 6/136/30 7/137/30 100/135/30
f 3/5/31 100/138/31 101/139/31 4/6/31
f 100/138/32 7/140/32 8/141/32 101/139/32
f 5/136/33 98/134/33 101/135/33 8/137/33
f 98/134/34 1/9/34 4/10/34 101/135/34
f 93/142/7 97/143/7 96/144/7 102/145/7
f 94/146/7 102/145/7 96/144/7 95/147/7
f 89/118/35 90/121/35 103/148/35 104/149/35
f 88/123/36 87/122/36 105/150/36 106/151/36
f 104/149/37 103/148/37 109/152/37 108/153/37
f 110/154/7 115/155/7 116/156/7 109/157/7
f 115/155/7 111/158/7 112/159/7 116/156/7
f 108/160/14 117/161/14 118/162/14 107/163/14
f 117/161/14 113/164/14 114/165/14 118/162/14
f 109/152/38 116/166/38 117/167/38 108/153/38
f 116/166/39 112/168/39 113/169/39 117/167/39
f 111/170/1 114/171/1 113/172/1 112/168/1
f 102/145/7 94/146/7 120/173/7 119/174/7
f 93/142/7 102/145/7 119/174/7 121/175/7
f 93/142/1 121/176/1 122/177/1 130/178/1
f 120/179/15 94/180/15 129/181/15 123/182/15
f 97/183/40 93/184/40 130/185/40 126/186/40
f 96/187/41 97/188/41 126/186/41 127/189/41
f 95/190/42 96/191/42 127/192/42 128/193/42
f 94/194/43 95/190/43 128/193/43 129/195/43
f 127/144/14 126/147/14 130/180/14 125/196/14
f 127/144/14 125/196/14 129/142/14 128/143/14
f 123/176/14 129/142/14 125/196/14 124/174/14
f 124/174/14 125/196/14 130/180/14 122/197/14
f 24/35/15 30/38/15 28/198/15 25/199/15
f 23/36/15 26/200/15 27/201/15 29/37/15
f 30/38/44 29/37/44 131/202/44 132/203/44
f 22/204/45 131/202/45 29/37/45 27/201/45
f 21/205/46 28/198/46 30/38/46 132/203/46
f 21/205/47 132/203/47 131/202/47 22/204/47
